<mxfile host="Electron" modified="2024-07-06T03:04:02.774Z" agent="Mozilla/5.0 (Windows NT 10.0; Win64; x64) AppleWebKit/537.36 (KHTML, like Gecko) draw.io/21.2.8 Chrome/112.0.5615.165 Electron/24.2.0 Safari/537.36" etag="9_w5GuJ-18rGpqJiusiw" version="21.2.8" type="device">
  <diagram name="PÃ¡gina-1" id="sKdM4S4x5W7-zaHmUrem">
    <mxGraphModel dx="1098" dy="820" grid="1" gridSize="10" guides="1" tooltips="1" connect="1" arrows="1" fold="1" page="1" pageScale="1" pageWidth="827" pageHeight="1169" math="0" shadow="0">
      <root>
        <mxCell id="0" />
        <mxCell id="1" parent="0" />
        <mxCell id="mAbpSGDhyiTL_NM7uRgR-1" value="" style="whiteSpace=wrap;html=1;aspect=fixed;" vertex="1" parent="1">
          <mxGeometry x="190" y="230" width="290" height="290" as="geometry" />
        </mxCell>
        <mxCell id="mAbpSGDhyiTL_NM7uRgR-6" value="" style="rounded=0;whiteSpace=wrap;html=1;" vertex="1" parent="1">
          <mxGeometry x="190" y="230" width="110" height="120" as="geometry" />
        </mxCell>
        <mxCell id="mAbpSGDhyiTL_NM7uRgR-2" value="" style="shape=umlActor;verticalLabelPosition=bottom;verticalAlign=top;html=1;outlineConnect=0;" vertex="1" parent="1">
          <mxGeometry x="230" y="260" width="30" height="60" as="geometry" />
        </mxCell>
        <mxCell id="mAbpSGDhyiTL_NM7uRgR-3" value="Carrera Actual" style="rounded=0;whiteSpace=wrap;html=1;" vertex="1" parent="1">
          <mxGeometry x="294" y="230" width="186" height="40" as="geometry" />
        </mxCell>
        <mxCell id="mAbpSGDhyiTL_NM7uRgR-4" value="Carreras Pasadas" style="rounded=0;whiteSpace=wrap;html=1;" vertex="1" parent="1">
          <mxGeometry x="294" y="270" width="186" height="40" as="geometry" />
        </mxCell>
        <mxCell id="mAbpSGDhyiTL_NM7uRgR-5" value="Experiencia" style="rounded=0;whiteSpace=wrap;html=1;" vertex="1" parent="1">
          <mxGeometry x="294" y="310" width="96" height="40" as="geometry" />
        </mxCell>
        <mxCell id="mAbpSGDhyiTL_NM7uRgR-8" value="Avances" style="rounded=0;whiteSpace=wrap;html=1;" vertex="1" parent="1">
          <mxGeometry x="390" y="310" width="90" height="40" as="geometry" />
        </mxCell>
        <mxCell id="mAbpSGDhyiTL_NM7uRgR-9" value="Talentos" style="rounded=0;whiteSpace=wrap;html=1;" vertex="1" parent="1">
          <mxGeometry x="190" y="350" width="140" height="170" as="geometry" />
        </mxCell>
        <mxCell id="mAbpSGDhyiTL_NM7uRgR-10" value="Habilidades" style="rounded=0;whiteSpace=wrap;html=1;" vertex="1" parent="1">
          <mxGeometry x="330" y="350" width="150" height="170" as="geometry" />
        </mxCell>
      </root>
    </mxGraphModel>
  </diagram>
</mxfile>
